/* XPM */
static const char *pwiz_16x16_xpm[] = {
/* columns rows colors chars-per-pixel */
"16 16 220 2",
"J. c #CACACA",
"F. c #E8EEFA",
"*  c #EDF2FB",
"U. c #C0BFC1",
"=  c #EDF2FC",
"!. c #D9DFF0",
"+  c #9D9A9E",
"=X c #D9DFF1",
"H. c #4B4B49",
"E. c #E3E7F6",
"j  c #E18B35",
"a. c #878787",
"`  c #919293",
"g. c #B4B7B9",
"D  c #EDB643",
"tX c #969697",
"N. c #A5A5A5",
"M  c #E38847",
".X c #D2DBED",
"m  c #E08D7C",
"z  c #E8CA98",
"rX c #B4B4B6",
"(  c #C3C3C4",
"6X c #B9B8BB",
"K. c #FFFFFF",
".. c #EBEFFB",
"<X c #6C6D6B",
"5. c #717171",
">. c #EBECF9",
"d. c #8F8F8F",
"h  c #E08168",
"7. c #9E9E9E",
"B  c #FFE027",
"%. c #4C4F4D",
"O. c #EEF3FC",
"$  c None",
"D. c #DFE4F3",
"j. c #E4E8F5",
"X. c #E9ECF9",
"p. c #474545",
"_  c #929390",
"Y  c #F4CE49",
"V  c #E59C4A",
"g  c #E59943",
"G  c #EA9D46",
"s  c #D7C4C3",
"1  c #29DA81",
"~  c #E27A02",
"S  c #EEB43E",
"[  c #BF7F6A",
"R  c #E48C54",
"eX c #B5B5B7",
"t. c #BAB9BA",
"5X c #BAB9BC",
"4. c #FBFCFD",
")  c #FBFCFF",
"6  c #DB6B55",
"|. c #D8DDF0",
"Q. c #DDE1F2",
"[. c #E2E5F5",
"G. c #959795",
"F  c #EEBA62",
"(. c #5E5C5B",
"m. c #5E5C5C",
"8  c #EFF7FC",
"V. c #909090",
"n  c #CCCCCB",
"4X c #A4A3A8",
"y. c #C2C1C2",
",X c #E5ECFC",
"*X c #DBE1F1",
"3. c #C2C1C4",
"W. c #E0E5F4",
"R. c #E5E9F6",
",  c #EFEEEF",
"z. c #F4F5FB",
"<  c #AF8FA1",
"^  c #F7FFFF",
"Q  c #E9BFA2",
"qX c #B6B6B8",
"2. c #BBBABB",
"Z. c #BBBABC",
"t  c #A7A7AF",
"-  c #EDF1FB",
".  c #F7F9FD",
"i  c #FCFDFF",
"O  c #F7F9FE",
":. c #F7F9FF",
"-. c #464646",
"7  c #F0FBFE",
"N  c #F9E34E",
"c  c #EBF4F9",
"W  c #E3873E",
"+X c #A0A0A0",
"b  c #878687",
"8. c #AFAFAF",
"r  c #9B9FAC",
"@. c #C3C2C4",
"6. c #585957",
"1. c #EBEEF7",
"Y. c #F0F2F9",
"oX c #444343",
" X c #D7DBEF",
"M. c #6C6C6B",
"9. c #6C6C6C",
";. c #8F8E89",
"!  c #E69D80",
"E  c #E6A08B",
"I. c #8F8E91",
"u  c #C6C6C7",
"]  c #E96021",
"2  c #C6C6C8",
"b. c #E9EEF9",
"f. c #424341",
"OX c #E4E4E5",
"$. c #D0CECE",
":  c #F3F6FD",
"{. c #DFE3F3",
"l  c #E59224",
"3X c #565657",
"P. c #656564",
"v. c #E9EBF7",
"]. c #E4E7F7",
"}  c #CC9F91",
"|  c #F6FAF2",
"K  c #747474",
"B. c #929292",
"a  c #7E7C7A",
"i. c #BABBB9",
"@X c #BFBFBF",
";X c #D3DBED",
"`. c #BFBFC1",
"x  c #EF9D44",
"r. c #E7EBF6",
",. c #E7EBF7",
"C. c #5E5E5C",
"~. c #D8DCF1",
"1X c #A9A9A9",
"uX c #9A9A9D",
"7X c #B8B8BA",
"h. c #E5EBF7",
"   c #C7C7C9",
"*. c #A7B2B9",
"J  c #C7C7CA",
"L. c #E5E5E5",
"-X c #D6DCEF",
"%X c #E0E4F2",
"}. c #DBE0F2",
"&. c #A4998F",
"<. c #E5E8F7",
"A. c #EAECF9",
"#  c #11EF7E",
"s. c #B1B1B1",
"+. c #BBBCBD",
"2X c #B1B1B2",
"U  c #E9A95B",
"T  c #EFB74B",
"wX c #B6B5B8",
"&X c #DEE4F2",
"5  c #F2F4F6",
"^. c #D9E0F3",
"&  c #EDF0F9",
"#. c #F2F4FB",
";  c #EDF0FC",
"S. c #E3E5F6",
"yX c #8C8C8D",
"=. c #9B9B9B",
"9  c #F5FBFE",
"/. c #C8CBCF",
"k  c #E6934D",
">  c #969498",
"v  c #BEBDBF",
"q. c #E1E2E5",
"@  c #938790",
">X c #D2D9ED",
" . c #EDD8C6",
"y  c #969196",
"'. c #F0F1FA",
"c. c #EBEDF9",
"w. c #E6E9F8",
"'  c #9AB7C2",
"Z  c #EBB74C",
"C  c #D96608",
"{  c #766D5F",
"/  c #BCBDBE",
"l. c #C1C1C2",
"A  c #FDF355",
"0X c #B7B6B9",
"0  c #E18F6B",
"9X c #B7B6BA",
"X  c #F3F5FB",
"3  c #EEF1FB",
"o  c #F3F5FC",
"u. c #F3F5FE",
"w  c #F0D0A8",
"p  c #929192",
"k. c #BABAB9",
":X c #D3DAED",
"$X c #E2E6F4",
"T. c #E7EAF6",
"x. c #ECEEF9",
"_. c #818282",
"d  c #E19A3A",
"XX c #E5EDFA",
"L  c #CCCDCD",
"H  c #BDBEC1",
"f  c #DF7D4B",
"n. c #E5E7E9",
"8X c #B8B7B9",
"%  c #C7C6C8",
"#X c #EFF2FA",
"). c #FEFEFE",
"4  c #EFF2FC",
"0. c #575654",
"e. c #E0E3F3",
"I  c #DA8275",
"e  c #9D9D9A",
"q  c #F2F6F2",
"o. c #EDF5FC",
"P  c #F6E1D7",
/* pixels */
"  . X X X X X X X X o O + @ # $ ",
"% X & & * = & & - ; & : > , < 1 ",
"2 X 3 4 5 6 7 8 9 0 q w e r t y ",
"u i p a s d f g h j k l z x c v ",
"  b n m M N B V C Z A S D F G H ",
"J K L P I U Y T R E W Q ! ~ ^ / ",
"( ) _ ` ' ] [ { } |  ...X.o.O.+.",
"@.X #.$.%.&.*.=.-.;.:.>.,.<.1.2.",
"3.X & 3 4.5.6.7.8.9.0.q.w.e.r.t.",
"y.X & & & u.i.p.a.s.d.f.g.h.j.k.",
"l.z.& x.c.v.b.n.m.M.N.B.V.C...Z.",
"l.X A.v.,.j.S.D.F.G.H.J.K.L.P.I.",
"U.Y.T.R.E.W.Q.!.~.^./.(.K.).K._.",
"`.'.R.].[.{.}.|. X.XXXoXOXK.).+X",
"@X#X$X%X&X*X=X-X;X:X>X,X<X1X2X3X",
"4X5X6X7X7X8X9X0XqXwXwXeXrXtXyXuX"
};

