/* XPM */
static const char *pwiz_32x32_xpm[] = {
/* columns rows colors chars-per-pixel */
"32 32 689 2",
"G. c Black",
"s# c #69686D",
"6  c #FDFEFF",
"h# c #6F6F71",
"d  c #D8D1D6",
" X c #FFFF58",
"l@ c #D2DCED",
"@X c #D65F00",
"<O c #EAECE7",
"g@ c #D8DDF0",
"9X c #FFFF62",
"o@ c #D8DDF1",
"O. c #9A979E",
"2@ c #D8DDF2",
"VX c #FFFF65",
"R. c #CA4500",
"s@ c #DEE4F4",
"j+ c #E4EBF4",
".# c #DEE4F5",
"2. c #F0FFFF",
"NX c #FFFF6D",
"3O c #E4E5F5",
"1+ c #EAECF8",
"&+ c #ACACAC",
".+ c #EAECF9",
"_o c #18161C",
"fo c #EAECFA",
"p  c #F0F3FF",
"T@ c #C5D1E9",
"6o c #8D8C93",
"CX c #FFFF80",
"d. c #EDC658",
"$X c #FFFF86",
"1# c #747379",
"oX c #FFFF8A",
"7X c #DAB43A",
"Q. c #FFFF8D",
"P. c #FFFF8F",
"5@ c #D7DAF0",
"pX c #FFFF90",
"K+ c #DDE1F1",
"H. c #111217",
"'+ c #E3E8F4",
"eX c #FFFF97",
"`@ c #E3E8F8",
"io c #17252A",
"FX c #FFFF99",
"uo c #30384B",
"v+ c #6D6F67",
"!. c #FFFFA3",
"fO c #EFF0FF",
"Fo c #F5F7FF",
"WX c #FFFFA8",
"gX c #FFFFA9",
"b@ c #929094",
"=# c #2F2F2E",
":X c #FFFFB2",
")o c #545655",
"P+ c #D6DDEF",
"~O c #9E9E9E",
"!@ c #16160F",
"AX c #DB5D30",
"|  c #EEFFFF",
"@  c #EEEDEB",
"4O c #E2E5F3",
";@ c #E2E5F5",
"y  c #E8ECF6",
"8X c #FFFFC5",
"j. c #DA4E00",
"Uo c #FAFBF5",
"w# c #6C6C6E",
"Ro c #FAFBFF",
"=X c #D96300",
"vO c #E1E2E0",
"~. c #EBD873",
"(O c #0F0C07",
"6. c #D35600",
"f  c #A53C78",
"a. c #F3C7BA",
"S+ c #E7E9F5",
"{O c #EDF0F7",
"C  c #EDF0F8",
"l  c #EDF0F9",
"a  c #EDF0FA",
"cX c #21211F",
"cO c #F3F7FF",
"## c #E7E9FF",
"4  c #F9FEFF",
"Ao c #464849",
"@O c #FFFFFA",
"9O c #8A8991",
"i+ c #FFFFFD",
"3  c #FFFFFF",
"OX c #D86003",
"n@ c #E6E6E6",
" . c #ECFFFF",
"b+ c #14100E",
"=  c #ECEDEB",
"RX c #E5F5D4",
"&  c #ECEDEC",
":O c #5E5E5E",
"4o c #F8FBF7",
"bo c #453F3A",
"Jo c #ECEDF9",
"L  c #F2F4F9",
" + c #ECEDFA",
"*o c #ADA47A",
"M. c #D9FFFF",
"I@ c #C7D2E3",
"!o c #898C92",
"<X c #FDE1AE",
"H  c #ECEDFF",
"_X c #E4742B",
"*X c #F5E66E",
"%. c #8F8D95",
"W  c #8F8D96",
"qo c #706D70",
"WO c #9B9B9B",
"yo c #6A90A9",
"C. c #EBEAE5",
"(X c #E37D1E",
"X# c #DFE2F3",
"Po c #E5E9F6",
"so c #EBF6FF",
"nO c #44423E",
"3+ c #EBEAF6",
".X c #FFE82E",
"L. c #C45700",
"<. c #CB3700",
"g# c #69696B",
"IX c #D66600",
"hX c #E89924",
"{X c #FDFFFF",
"+o c #D8D8DB",
"kO c #CCD6ED",
"jX c #D65A00",
"Io c #D8DEEF",
"+. c #9A989D",
"rO c #5C5E5E",
"iO c #A6A6A6",
"y@ c #E4E6F3",
"MX c #E2A454",
" O c #E4E6F5",
"-@ c #E4E6F6",
"k+ c #E4E6F8",
"S  c #EAF3FF",
"2+ c #EAEDF9",
":  c #87868C",
";. c #F0F4FF",
"tX c #E1830F",
"r  c #FCFCF9",
"$o c #F9FF81",
"p# c #68666D",
"[. c #E3F5ED",
"d# c #6E6D72",
"0# c #6E6D73",
"(o c #747474",
"f. c #C50000",
"_O c #DDE8F8",
"jO c #DDE2F2",
" # c #DDE2F4",
"kX c #ED9D39",
"l+ c #E3E3F5",
"mo c #616E72",
">+ c #E9EAF7",
"~@ c #424241",
"/O c #424242",
"/o c #B1B1B1",
"fX c #E67B00",
"ro c #D61E00",
"1X c #FBFFFF",
"X. c #ABAAB4",
"`O c #C4CFE9",
"U. c #DB763B",
"1  c #929198",
"wO c #6D6A73",
"+# c #DCDFEF",
"O# c #DCDFF1",
"o  c #EEEEEC",
";X c #F1E660",
"i  c #E8EDF8",
"Lo c #E8EDF9",
"n. c #DA4F00",
"C+ c #FAFCF6",
"r. c #9E9FB5",
"No c #F3D4AF",
"7. c #F3E6C8",
"EX c #C30000",
"BO c #BCBCBB",
"j@ c #D5DBEE",
"w+ c #A3A3A3",
"/+ c #E1E3F1",
"2X c #7E7C81",
"H+ c #E1E3F5",
"ZX c #EACA4B",
"*@ c #E7EAF6",
"V  c #E7EAF7",
"4X c #EDEBF1",
"-# c #848387",
"PO c #EDF1FA",
"co c #F9F9F4",
"MO c #8A8A8A",
"0O c #F9F9F5",
"|O c #EDF1FC",
";# c #84838B",
"To c #F9F9F6",
"^+ c #F9F9F7",
"/  c #F9FFFF",
"G  c #EDF1FF",
"^X c #EB9D50",
"eO c #080903",
"6X c #CE1100",
"y# c #6B6A70",
"e# c #6B6A71",
"-o c #FFA096",
"C@ c #DADFE9",
"Oo c #E0E0E4",
"/X c #D25400",
"%o c #DA1300",
"*  c #ECEEEB",
"s  c #333137",
"D+ c #E6E7F3",
"$@ c #646664",
"_  c #ECEEF8",
"xX c #AEAEAE",
"g+ c #ECEEFA",
"d+ c #ECEEFB",
"Go c #ECEEFC",
"K  c #F2F5FF",
"<# c #8F8E93",
"S. c #8F8E95",
"'X c #F0A75B",
"5X c #CC2F00",
"L+ c #D9E2F2",
"TX c #323434",
"># c #7C7C7B",
"$+ c #7C7C7C",
"b  c #E5DEE4",
"{o c #E5EAF3",
"s. c #D14B00",
"_+ c #E5EAF6",
",+ c #EBF1F7",
"r@ c #F7F9F5",
"OO c #F7F9F6",
"Q+ c #444340",
"2o c #EBEBF8",
"]X c #F7FFFF",
"k. c #CC1700",
"&X c #FFF53E",
"=O c #B9B9B9",
",. c #C60400",
"-+ c #56524B",
",X c #E89A30",
"GO c #CCD1EC",
"   c #94929A",
"B@ c #D8DFF1",
"`X c #D65500",
"XO c #7B7981",
"}o c #E4E7F4",
"l. c #EAA6A0",
"}X c #E18405",
"]@ c #E4E7F6",
"]+ c #E4E7F7",
"<o c #EAF4FF",
"9. c #FA8515",
"9@ c #24201C",
"Eo c #B8B6AF",
"9o c #E3E4E0",
"Do c #CACBBE",
"3@ c #D7DCEE",
"$O c #363532",
"%@ c #555558",
"YO c #3C3C3A",
"rX c #BE0F00",
"{@ c #E3E4F5",
"go c #E9EBF7",
"[X c #F5FFFF",
"o+ c #E9EBF8",
"x. c #ECD760",
"vo c #EFF2FC",
"M  c #00FF7A",
"e@ c #86848C",
"h  c #00FF7B",
"w  c #00FF7D",
"Wo c #3C4251",
"E  c #00FF7E",
"e  c #00FF7F",
"Yo c #8C8B91",
"<  c None",
"xo c #8C8B92",
"q  c #26DB7C",
"6O c #D0D8EA",
"2# c #737278",
"AO c #353835",
":# c #7F807D",
".@ c #DCE0F1",
"Q@ c #161815",
"2O c #E2E7F4",
"jo c #E8E8F7",
"zo c #FAFDF7",
"W@ c #F4FCFF",
"aX c #F7F475",
"/. c #F2963B",
"'o c #FAFDFF",
"nX c #BD0000",
"j  c #918F97",
"R  c #A46B8A",
"]O c #78767E",
"_. c #7E7D82",
"5O c #E1E4F5",
"EO c #848484",
"k  c #E7EBF7",
"tO c #848485",
"A  c #EDF8FF",
"1. c #F3FFFF",
"vX c #FFFBF2",
"^  c #E06F51",
"T+ c #464445",
",# c #DADAD9",
"c. c #D33A00",
".  c #E0E1DF",
"'. c #2D2B2B",
"Z@ c #DAE0EA",
"!O c #C1C1C1",
"d@ c #DAE0F1",
";+ c #CED8FC",
"a@ c #E0E1F0",
"m  c #838182",
"Z  c #ECEFF8",
"j# c #838187",
"=. c #ECEFF9",
"x  c #F2F6FB",
"g  c #43BF7E",
"U+ c #D3DCE0",
"KO c #89888E",
"Y@ c #C7D4E8",
";O c #8F8F8F",
"zO c #898890",
"0@ c #262726",
"YX c #FEFEFC",
"q@ c #FEFEFE",
"R@ c #C7D4ED",
"L@ c #CDD5E8",
"3X c #8F8F95",
"eo c #F66100",
"F@ c #D3DCED",
"4# c #706F75",
"mO c #767676",
"no c #131513",
"X@ c #D9DDF3",
"++ c #ADB2AA",
"h+ c #E5EBF7",
"'  c #F1FFFF",
"). c #E35B00",
"+X c #E2880F",
"U  c #F7FAF8",
"BX c #FFEA37",
"#+ c #505251",
"^. c #E26A00",
"|X c #E87100",
",  c #2EDD81",
"t@ c #DEE1F3",
"Z+ c #E4E8F4",
"F+ c #E4E8F6",
"`  c #EAEFF8",
"'@ c #E4E8F8",
"(+ c #EAE9F5",
"1O c #EAEFFE",
"B  c #FCFEF9",
"RO c #686868",
"Q  c #FCFEFA",
"2  c #FCFEFB",
"pO c #6E6F6F",
"6@ c #D1DCED",
".. c #434D5D",
"uO c #BEBEBE",
"~X c #E77410",
"%# c #A5A5A5",
"n  c #9A4C77",
"3. c #EFFFFF",
"i@ c #E3E5F6",
"Ko c #E9ECF8",
"HO c #FBFBF4",
"KX c #CF4000",
"e. c #9FAABD",
"~+ c #86858A",
">o c #EEEAC8",
"D. c #FBFBF7",
"-. c #EFF3FE",
"V+ c #86858C",
"8o c #EFF3FF",
"#@ c #FBFBFB",
"9+ c #231E21",
"F. c #484547",
"J@ c #D0D9EA",
"yX c #C92D00",
"q# c #6D6C72",
"8# c #6D6C73",
"%O c #737373",
"q. c #9F9EC1",
"dX c #EBB723",
"@@ c #2F2C2C",
"6+ c #E2E8F3",
"ho c #E8E9F5",
"c@ c #F4FDFF",
"t+ c #222124",
"oO c #8B8990",
"iX c #E5AA3D",
"N+ c #979796",
"b. c #EAB41D",
">. c #F3EED9",
",@ c #DBE4F5",
"5. c #CF0400",
"JO c #78777E",
"m. c #EDFFFF",
"#  c #EDEDEB",
"J+ c #E1E5F2",
"X  c #EDEDEC",
"{+ c #E1E5F4",
"x+ c #E1E5F5",
"SO c #EDF9FF",
"Zo c #656565",
"}  c #EDF3FF",
"#o c #DB0000",
"w@ c #4C4C4B",
"I  c #FFFCFC",
"ZO c #2D2C26",
"Y  c #FFFCFF",
"NO c #BBBBBB",
"}. c #C80000",
">X c #D25000",
"*O c #A2A2A2",
"}+ c #E0E2F0",
"5o c #7D7B82",
"`+ c #E6E9F4",
"sX c #FCCF64",
"0o c #646868",
"+O c #ECF0F9",
")  c #ECF0FB",
"7o c #F8F8F4",
"O+ c #F2F7FF",
"7  c #FEFFFE",
"u# c #6A696E",
"~  c #FEFFFF",
"q+ c #707070",
"{. c #EA6C1C",
"Mo c #F1DCC1",
"6# c #707073",
"5# c #707074",
"JX c #D75A00",
"u+ c #DFE5EF",
"{  c #EBFFFF",
"gO c #DFE5F5",
"5+ c #E5ECF7",
"[o c #E5E6F2",
"$# c #828587",
"^O c #636564",
"w. c #9BA4BA",
"T. c #F4EC6B",
"f+ c #EBEDF9",
"K. c #F7A799",
"a+ c #88868E",
"UX c #8E8D94",
"Bo c #ADD1E6",
"7# c #6F6D73",
"S@ c #D8E1EC",
"9# c #6F6D74",
" @ c #D8E1EE",
"GX c #C52100",
"m+ c #7B7B7B",
"k@ c #D8DBF0",
"VO c #818281",
"h. c #DD7950",
"^@ c #626262",
"Xo c #F6F8F4",
"@o c #87CBDA",
"a# c #68696B",
"lX c #FCFFFF",
"wX c #FED020",
"t. c #B8B8BA",
"dO c #999896",
"]. c #30302F",
"Y. c #E7B14F",
"N. c #F4E6A9",
"o# c #DDDFF0",
"lO c #7A787F",
"[+ c #E3E6F5",
"|o c #E3E6F6",
"!+ c #807F86",
"*+ c #6D6D6D",
"LX c #CF3500",
"7@ c #D0DAEC",
"(. c #E69025",
"4@ c #D6DBEE",
"0+ c #353430",
"8@ c #D6E1FA",
"|+ c #DCE2F3",
"=o c #E1B08A",
"E@ c #DCE8FF",
"(  c #EEFDFF",
">O c #3B3B3B",
"0  c #A63175",
"0. c #E6DE94",
"@. c #AAAAAE",
"qO c #EEF1FB",
"O@ c #E8EAFF",
"[  c #FAFFFF",
"8  c #414249",
"D@ c #D5DEEF",
"3# c #727177",
"A@ c #DBDFEC",
"P  c #2E2A31",
"@# c #DBDFF0",
"+  c #EDEEEB",
"f@ c #DBDFF3",
"O  c #EDEEEC",
"J. c #72A1B9",
"1@ c #DBDFF4",
"wo c #97C8E1",
"n+ c #5F5F5E",
"|. c #E5B15E",
"M+ c #5F5F5F",
"bX c #DA886B",
"=+ c #403F3F",
"D  c #EDF4FF",
"}O c #EDEEF9",
"Ho c #EDEEFB",
"IO c #EDEEFC",
"U@ c #C8D3E9",
"So c #080602",
"aO c #4C4D4F",
"Co c #969595",
"N  c #908E96",
"`o c #58554B",
"V. c #CEE6FF",
"v  c #E0E3E4",
"e+ c #9C9C9C",
"#X c #F0D46B",
"z. c #D33000",
"lo c #DAE2F1",
"|@ c #E0E3F4",
"zX c #7D7C82",
"r+ c #838383",
"*. c #E6EAF7",
"W+ c #F2F2F2",
"/@ c #838388",
"ko c #E6EAFA",
"#O c #20221E",
"ao c #F2F8FF",
"v. c #C71000",
":o c #F8FFFF",
":. c #ECF1FF",
"i# c #6A6A6C",
"@+ c #070300",
"^o c #C0C0C0",
"FO c #D9DFF0",
"$. c #82928C",
"hO c #DFE0F0",
"oo c #63665F",
"&# c #A7A7A7",
"[@ c #E5E7F4",
"do c #EBEEF7",
"mX c #C61300",
"&O c #888788",
"]o c #EBEEFB",
"po c #3E4B53",
"*# c #1F1F20",
"Z. c #FDFDF9",
":+ c #88878E",
"`. c #FDFDFA",
"[O c #88878F",
"%+ c #8E8E8F",
"p. c #E4DECE",
"E+ c #FDFDFD",
")O c #D2D5DF",
"5  c #FDFDFF",
"QX c #FAFA80",
"K@ c #CCD4E9",
"f# c #6F6E72",
"c  c #2B272F",
"h@ c #D8DCEF",
"DO c #DEE3F3",
"3o c #DEE9FF",
"#. c #8E6A82",
"~o c #ACABA8",
"X+ c #EAEBF7",
"-X c #DB7400",
")X c #F6FFFF",
"1o c #EAEBFB",
"QO c #B2B2B2",
"Y+ c #0B0A04",
"z@ c #D1D8ED",
"B+ c #9FA09E",
"PX c #E68B00",
"I+ c #DDE6F8",
"qX c #FDD40D",
"G+ c #E3E7F2",
"8O c #7A7980",
"!X c #D55506",
"t  c #E3E7F5",
"u@ c #E3E7F6",
"=@ c #E3E7F8",
"'O c #FBFDF4",
"B. c #FFC863",
"TO c #232024",
"G@ c #D0DBEA",
"m@ c #4E4E4E",
"Vo c #B7BCC1",
"-O c #BDBDBD",
"sO c #0A0707",
"y. c #C3C4C2",
"v@ c #C3C4C7",
"z+ c #E2E4F3",
":@ c #E2E4F4",
"}@ c #E2E4F5",
",O c #1C1612",
"u  c #E8EBF6",
"SX c #F4FFFF",
"!  c #E8F1FF",
"N@ c #FAFAF3",
"7+ c #E8EBFB",
"7O c #FAFAF4",
"LO c #FAFAF5",
"&@ c #85848B",
"s+ c #FAFAF6",
"M@ c #85848C",
"c+ c #EEF2FF",
">  c #9E7F94",
"8+ c #FAFAFD",
"r# c #6C6B6F",
"t# c #6C6B70",
"T  c #9E738B",
"bO c #090A05",
" o c #E1FFFF",
"Qo c #6C717A",
"H@ c #CFD8EC",
"E. c #CE2D00",
"CO c #595959",
"R+ c #C8C8C9",
">@ c #E1E1F0",
"A+ c #E7E8F4",
"J  c #EDEFF8",
"F  c #EDEFF9",
"HX c #E0A287",
"<+ c #EDEFFC",
"UO c #EDEFFD",
"P@ c #C8D4E7",
"z  c #F3F6FF",
"DX c #C80E00",
"]  c #E5E2AB",
"yO c #969696",
"I. c #F0E175",
"x@ c #CED5ED",
".O c #D4DCEE",
"p+ c #77767D",
"-  c #ECECEA",
"$  c #ECECEB",
",o c #DE721B",
"%  c #ECECEC",
"p@ c #E0E4F3",
")@ c #E6EBF5",
"4+ c #E6EBF6",
"V@ c #E0E4F6",
")+ c #E6EBF7",
"4. c #F2FFFF",
".o c #F8FAF5",
"+@ c #4B4B40",
";o c #F1905B",
"y+ c #010300",
";  c #D9DAD7",
"g. c #EB9B7A",
"9  c #FEF5F8",
"o. c #959398",
"%X c #FFE10E",
"uX c #D75C00",
"<@ c #D9E0ED",
"8. c #EABC8B",
"A. c #7C7A81",
"to c #EAC297",
"&o c #CB9666",
"xO c #EBEFF8",
"W. c #F4F472",
"u. c #828187",
"_@ c #E5E8FA",
"(@ c #F7F7F3",
"0X c #FFDB1F",
"i. c #F1F6FF",
"XX c #FFF33D",
"&. c #FDFEFA",
/* pixels */
"  . X X X o O X + @ X # X # $ $ $ % & & * = - ; : > , < < < < < ",
"1 2 3 4 5 5 5 5 5 5 6 6 6 6 6 6 6 6 6 5 5 5 3 7 8 9 0 q w e < < ",
"1 r 3 t y y y y y y y y y y y y y y y y u i p a s 3 d f g h e < ",
"j r 3 k l l l l l l l l l l l l l l l l l l z x c 3 v b n m M < ",
"N B 3 V l l l C Z A S D Z l l F Z G H G Z J K L P 3 I U Y T R E ",
"W Q 3 V l l l l ! ~ ^ / ( ) Z _ ` ' ] [ { } |  ...X.o.O.+.@.#.$.",
"%.&.3 *.=.-.p ;.:.>.,.<.1.2.3.4./ 3 5.6.7.[ 8.9.0.q.w.e.r.t.y.u.",
"%.&.3 i.3 3 p.3 3 a.s.d.f.g.h.j.k.l.z.x.c.v.b.n.m.M.N.B.V.C.Z.A.",
"S.D.3 3 F.G.H.G.J.K.L.P.I.U.Y.T.R.3 E.W.Q.!.~.^./.(.).^.' 3 3 _.",
"S.`.3 '.].3 3 [.{.}.|. X.XXXoXOX+X@X#X$X%X&X*X=X-X;X:X>X,X<X1X2X",
"3X3 4XG.3 3 5X6X7X8X9X0XqXwXeXrXtXyXuXiXpXaXsXdXfXgX:XhXjXkXlXzX",
"S.3 xXcX3 3 vXbXnXmXMXNXBXVXCXZXAX3 SXDXFXGXHXJXKXLXPXIXlX3 [ _.",
"UXYX3 G.TX3 3 3 3 RXEXWXQX!X~X^X/X(X)X_X`X'X]X[X[ {X}X|X o3 .ozX",
"UXXo3 3 ooG.Oo3 +o@o#o$o%o&o*o=o-o;o:o>o,o:o<o1o2o! ' ' 3o3 4o5o",
"6o7o3 8o3 9oG.0oqowoeorotoyouoiopo3 3 3.aosodofogohojokolo3 zoA.",
"xoco3 *.vo3 3 bonomoMoNoBoVoCoZoAoSoDo3 FoGoHoJoKoLoV PoIo3 UoA.",
"YoTo3 V C =.Ro3 EoG.WoQo!o~o^o/o(o)o_o`o3 'o]o[o{o}o|o O.O3 coXO",
"oOOO3 V l +OZ K 3 @O#O$O%O&O*O=O-O;O:O>O,O<O3 1O2O3O4O5O6O3 7O8O",
"9O0O3 V l l l Z qO~ 3 wOeOrOtOyO/ouOiOpOaOsOdO3 fOgOhOjOkO3 7olO",
"zO0O3 V l l l l Z xOcO3 vObOnOmOMOiONOBOVOCOZOAO3 SODOFOGO3 HOJO",
"KOLO3 V l l C C C POIOUO3 3 YOTOROEOWOQO!O~O^O/O(O)O3 _O`O3 'O]O",
"[OLO3 V {O}OC |O +.+goX+o+O+3 ++@+#+$+%+&+^o=O*+=+G.-+3 ;+3 HOJO",
":+LO3 >+,+<+1+>+go2+3+4+5+6+7+3 8+9+0+q+EOw+e+r+3 3 t+y+u+3 i+p+",
"a+s+3 k d+f+f+g+KoLoh+j+k+l+z+x+c+3 v+b+n+m+M+3 3 3 3 N+G.B+3 JO",
"V+C+3 Z+1+A+S+D+{oF+G+H+ OJ+K+L+P+I+3 U+Y+T+R+3 3 E+3 3 W+G.Q+!+",
"~+^+3 /+(+)+_+`+'+]+[+{+}+|+ @.@X@o@o@O@3 +@@@#@3 3 E+3 3 3 $@%@",
"&@^+3 5O*@Z+=@-@;@:@>@,@<@1@2@3@4@5@6@7@8@lX9@0@3 3 E+q@E+3 q@w@",
"e@r@3 t@h+y@u@-@i@p@a@s@d@f@g@h@j@k@l@z@x@c@v@G.b@3 3 3 E+3 n@m@",
"M@N@3 B@V@C@Z@A@S@D@F@G@H@J@K@L@P@I@U@Y@T@R@E@W@Q@!@3 3 3 3 ~@^@",
"/@(@3 Po)@_@`@'@]@[@[+3O{@}@|@ #.#X#o#O#+#+#@###3 $#G.%#&#*#=#-#",
";#3 3 3 3 3 3 3 3 3 3 3 3 3 3 3 3 3 3 3 3 3 3 3 3 3 3 :#>#,#3 p+",
"<#8O1#2#3#4#4#5#5#5#6#7#8#9#0#q#q#w#e#r#t#y#u#i#p#a#s#d#f#g#h#j#"
};

