/* XPM */
static const char *green_circle_xpm[] = {
/* columns rows colors chars-per-pixel */
"16 16 2 1",
"  c None",
". c #00FF00",
/* pixels */
"                ",
"      .....     ",
"    .........   ",
"   ...........  ",
"  ............. ",
"  ............. ",
" ...............",
" ...............",
" ...............",
" ...............",
"  ............. ",
"  ............. ",
"   ...........  ",
"    .........   ",
"      .....     ",
"                "
};
