/* XPM */
static const char *xpm_32x32_xpm[] = {
/* columns rows colors chars-per-pixel */
"32 32 5 1",
"  c #FF0000",
". c #40C000",
"o c #00A0C0",
"X c #00FF00",
"O c #0080FF",
/* pixels */
"                  .XXXXXXXXXXXXX",
"                 .XXXXXXXXXXXXXX",
"                .XXXXXXXXXXXXXXX",
"               .XXXXXXXXXXXXXXXX",
"              .XXXXXXXXXXXXXXXXX",
"             .XXXXXXXXXXXXXXXXXX",
"            .XXXXXXXXXXXXXXXXXXX",
"           .XXXXXXXXXXXXXXXXXXXX",
"          .XXXXXXXXXXXXXXXXXXXXX",
"         .XXXXXXXXXXXXXXXXXXXXXX",
"        .XXXXXXXXXXXXXXXXXXXXXXX",
"       .XXXXXXXXXXXXXXXXXXXXXXXo",
"      .XXXXXXXXXXXXXXXXXXXXXXXoO",
"     .XXXXXXXXXXXXXXXXXXXXXXXoOO",
"    .XXXXXXXXXXXXXXXXXXXXXXXoOOO",
"   .XXXXXXXXXXXXXXXXXXXXXXXoOOOO",
"  .XXXXXXXXXXXXXXXXXXXXXXXoOOOOO",
" .XXXXXXXXXXXXXXXXXXXXXXXoOOOOOO",
".XXXXXXXXXXXXXXXXXXXXXXXoOOOOOOO",
"XXXXXXXXXXXXXXXXXXXXXXXoOOOOOOOO",
"XXXXXXXXXXXXXXXXXXXXXXoOOOOOOOOO",
"XXXXXXXXXXXXXXXXXXXXXoOOOOOOOOOO",
"XXXXXXXXXXXXXXXXXXXXoOOOOOOOOOOO",
"XXXXXXXXXXXXXXXXXXXoOOOOOOOOOOOO",
"XXXXXXXXXXXXXXXXXXoOOOOOOOOOOOOO",
"XXXXXXXXXXXXXXXXXoOOOOOOOOOOOOOO",
"XXXXXXXXXXXXXXXXoOOOOOOOOOOOOOOO",
"XXXXXXXXXXXXXXXoOOOOOOOOOOOOOOOO",
"XXXXXXXXXXXXXXoOOOOOOOOOOOOOOOOO",
"XXXXXXXXXXXXXoOOOOOOOOOOOOOOOOOO",
"XXXXXXXXXXXXoOOOOOOOOOOOOOOOOOOO",
"XXXXXXXXXXXoOOOOOOOOOOOOOOOOOOOO"
};

