/* XPM */
static const char *xpm_64x64_xpm[] = {
/* columns rows colors chars-per-pixel */
"64 64 3 1",
"  c #FF0000",
". c #00FF00",
"X c #0080FF",
/* pixels */
"                                     ...........................",
"                                    ............................",
"                                   .............................",
"                                  ..............................",
"                                 ...............................",
"                                ................................",
"                               .................................",
"                              ..................................",
"                             ...................................",
"                            ....................................",
"                           .....................................",
"                          ......................................",
"                         .......................................",
"                        ........................................",
"                       .........................................",
"                      ..........................................",
"                     ...........................................",
"                    ............................................",
"                   .............................................",
"                  ..............................................",
"                 ...............................................",
"                ................................................",
"               ................................................X",
"              ................................................XX",
"             ................................................XXX",
"            ................................................XXXX",
"           ................................................XXXXX",
"          ................................................XXXXXX",
"         ................................................XXXXXXX",
"        ................................................XXXXXXXX",
"       ................................................XXXXXXXXX",
"      ................................................XXXXXXXXXX",
"     ................................................XXXXXXXXXXX",
"    ................................................XXXXXXXXXXXX",
"   ................................................XXXXXXXXXXXXX",
"  ................................................XXXXXXXXXXXXXX",
" ................................................XXXXXXXXXXXXXXX",
"................................................XXXXXXXXXXXXXXXX",
"...............................................XXXXXXXXXXXXXXXXX",
"..............................................XXXXXXXXXXXXXXXXXX",
".............................................XXXXXXXXXXXXXXXXXXX",
"............................................XXXXXXXXXXXXXXXXXXXX",
"...........................................XXXXXXXXXXXXXXXXXXXXX",
"..........................................XXXXXXXXXXXXXXXXXXXXXX",
".........................................XXXXXXXXXXXXXXXXXXXXXXX",
"........................................XXXXXXXXXXXXXXXXXXXXXXXX",
".......................................XXXXXXXXXXXXXXXXXXXXXXXXX",
"......................................XXXXXXXXXXXXXXXXXXXXXXXXXX",
".....................................XXXXXXXXXXXXXXXXXXXXXXXXXXX",
"....................................XXXXXXXXXXXXXXXXXXXXXXXXXXXX",
"...................................XXXXXXXXXXXXXXXXXXXXXXXXXXXXX",
"..................................XXXXXXXXXXXXXXXXXXXXXXXXXXXXXX",
".................................XXXXXXXXXXXXXXXXXXXXXXXXXXXXXXX",
"................................XXXXXXXXXXXXXXXXXXXXXXXXXXXXXXXX",
"...............................XXXXXXXXXXXXXXXXXXXXXXXXXXXXXXXXX",
"..............................XXXXXXXXXXXXXXXXXXXXXXXXXXXXXXXXXX",
".............................XXXXXXXXXXXXXXXXXXXXXXXXXXXXXXXXXXX",
"............................XXXXXXXXXXXXXXXXXXXXXXXXXXXXXXXXXXXX",
"...........................XXXXXXXXXXXXXXXXXXXXXXXXXXXXXXXXXXXXX",
"..........................XXXXXXXXXXXXXXXXXXXXXXXXXXXXXXXXXXXXXX",
".........................XXXXXXXXXXXXXXXXXXXXXXXXXXXXXXXXXXXXXXX",
"........................XXXXXXXXXXXXXXXXXXXXXXXXXXXXXXXXXXXXXXXX",
".......................XXXXXXXXXXXXXXXXXXXXXXXXXXXXXXXXXXXXXXXXX",
"......................XXXXXXXXXXXXXXXXXXXXXXXXXXXXXXXXXXXXXXXXXX"
};

